<?xml version="1.0" standalone="no"?>
<!DOCTYPE svg PUBLIC "-//W3C//DTD SVG 20010904//EN"
 "http://www.w3.org/TR/2001/REC-SVG-20010904/DTD/svg10.dtd">
<svg version="1.0" xmlns="http://www.w3.org/2000/svg"
 width="64.000000pt" height="64.000000pt" viewBox="0 0 64.000000 64.000000"
 preserveAspectRatio="xMidYMid meet">
<metadata>
Created by potrace 1.16, written by Peter Selinger 2001-2019
</metadata>
<g transform="translate(0.000000,64.000000) scale(0.100000,-0.100000)"
fill="#fff" stroke="none">
<path d="M17 622 c-10 -10 -17 -27 -17 -38 0 -11 52 -70 122 -141 l123 -123
-123 -123 c-78 -78 -122 -130 -122 -143 0 -25 30 -54 56 -54 11 0 70 52 141
122 l123 123 123 -123 c78 -78 130 -122 143 -122 25 0 54 30 54 56 0 11 -52
70 -122 141 l-123 123 123 123 c78 78 122 130 122 143 0 25 -30 54 -56 54 -11
0 -70 -52 -141 -122 l-123 -123 -123 123 c-126 126 -149 139 -180 104z"/>
</g>
</svg>
