<svg width="85" height="20" viewBox="0 0 85 20" fill="none" xmlns="http://www.w3.org/2000/svg">
<path d="M2.93331 2.46666C-1.20002 5.26666 -1.20002 14.0667 2.93331 16.8667C9.33331 21.4 17.3333 17.4 17.3333 9.66666C17.3333 1.93332 9.33331 -2.06668 2.93331 2.46666Z" fill="white"/>
<path d="M69.8542 3.57645C61.8542 11.5765 72.2542 23.9765 81.5875 17.4431C85.7208 14.6431 85.7208 5.84312 81.5875 3.04312C77.4542 0.109783 73.0542 0.37645 69.8542 3.57645Z" fill="white"/>
<path d="M36.8542 3.57645C28.8542 11.5765 39.2542 23.9765 48.5875 17.4431C52.7208 14.6431 52.7208 5.84312 48.5875 3.04312C44.4542 0.109783 40.0542 0.37645 36.8542 3.57645Z" fill="white"/>
</svg>
